<svg id="Layer_1" data-name="Layer 1" xmlns="http://www.w3.org/2000/svg" viewBox="0 0 521.28 69.1"><defs><style>.cls-1{fill:#ff6b00;}.cls-2{fill:#fff;}</style></defs><path class="cls-1" d="M307.17,36.36c-3.59,5-10.77,5.14-13.19,5.14s-9.34-.12-12.93-5.14V51.74c0,5.66,5.84,10.26,13.06,10.26s13.06-4.6,13.06-10.26Z" transform="translate(-37 -30.2)"/><path class="cls-1" d="M310.64,77.6a19.15,19.15,0,0,0,3.67-9.17.78.78,0,0,1,0-.16c0-.33.07-.65.09-1,0-.48.06-1,.07-1.44v-.24c0-.49,0-1-.05-1.46l0-.35c0-.35-.07-.7-.11-1s-.08-.51-.13-.76l-.09-.54c-.07-.34-.15-.67-.24-1,0-.07,0-.14,0-.21a19.75,19.75,0,0,0-1.36-3.6c-.21-.41-.42-.81-.65-1.21-.11-.18-.23-.35-.35-.52s-.27-.44-.42-.66c-1.42,6.73-8.45,11.86-16.89,11.86a20.07,20.07,0,0,1-6.32-1c1.18,5.13,8.49,7.62,8.49,7.62-8,0-18.87-4.91-20.44-16.34a19.93,19.93,0,0,0-2.12,9.31h0a19.76,19.76,0,0,0,5.91,14.46,19.41,19.41,0,0,0,14.27,6h.22l.41,0,1,0a19.35,19.35,0,0,0,7.51-2l.06,0,.89-.47.28-.15c.16-.09.29-.2.45-.29.32-.21.64-.41.95-.64a19.3,19.3,0,0,0,4.93-4.86" transform="translate(-37 -30.2)"/><path class="cls-2" d="M38.32,46.21h9.75V85.09H38.32Zm4.87-16a6,6,0,0,1,4.41,1.86,6.18,6.18,0,0,1,1.83,4.5A6.11,6.11,0,0,1,47.61,41a5.88,5.88,0,0,1-4.34,1.84A5.94,5.94,0,0,1,38.83,41,6.26,6.26,0,0,1,37,36.42a6.2,6.2,0,0,1,6.19-6.22" transform="translate(-37 -30.2)"/><path class="cls-2" d="M56.93,46.21h9.76v4a23.61,23.61,0,0,1,6-3.89,14.66,14.66,0,0,1,5.51-1.09,13.33,13.33,0,0,1,9.82,4q3.38,3.42,3.38,10.15V85.09H81.77v-17q0-7-.63-9.24A6.34,6.34,0,0,0,79,55.34a6.08,6.08,0,0,0-3.83-1.2,7.17,7.17,0,0,0-5.08,2,10.49,10.49,0,0,0-2.94,5.48,43.75,43.75,0,0,0-.43,7.89v15.6H56.93Z" transform="translate(-37 -30.2)"/><path class="cls-2" d="M124.64,51.64l-6,6Q114.93,54,111.92,54a4.24,4.24,0,0,0-2.57.7,2.1,2.1,0,0,0-.93,1.73,2.14,2.14,0,0,0,.59,1.45,11.09,11.09,0,0,0,2.91,1.81l3.57,1.78q5.66,2.79,7.76,5.68a11.83,11.83,0,0,1-1.7,15.44c-2.53,2.31-5.94,3.47-10.2,3.47a16.23,16.23,0,0,1-13.58-6.65l6-6.54a13.8,13.8,0,0,0,4,3.23,8.8,8.8,0,0,0,4.09,1.24,4.9,4.9,0,0,0,3.11-.93,2.71,2.71,0,0,0,1.18-2.14q0-2.25-4.26-4.4l-3.29-1.64q-9.42-4.76-9.43-11.9a10.32,10.32,0,0,1,3.56-7.88,12.9,12.9,0,0,1,9.09-3.27,15.76,15.76,0,0,1,12.79,6.43" transform="translate(-37 -30.2)"/><polygon class="cls-2" points="97.22 1.68 106.98 1.68 106.98 16.01 112.77 16.01 112.77 24.41 106.98 24.41 106.98 54.88 97.22 54.88 97.22 24.41 92.22 24.41 92.22 16.01 97.22 16.01 97.22 1.68"/><path class="cls-2" d="M173.42,54.21a9.88,9.88,0,0,0-7.52,3.2,11.55,11.55,0,0,0-3,8.2A11.65,11.65,0,0,0,166,73.9a9.85,9.85,0,0,0,7.49,3.25,10,10,0,0,0,7.62-3.2,11.66,11.66,0,0,0,3-8.37,11.35,11.35,0,0,0-3-8.22,10.15,10.15,0,0,0-7.65-3.15m10.25-8h9.76V85.09h-9.76V81a19.06,19.06,0,0,1-5.73,3.91,16,16,0,0,1-6.22,1.2,17.29,17.29,0,0,1-13-5.85,20.38,20.38,0,0,1-5.5-14.52q0-9,5.32-14.76a17,17,0,0,1,12.92-5.75A16.48,16.48,0,0,1,178,46.53a18,18,0,0,1,5.67,4Z" transform="translate(-37 -30.2)"/><path class="cls-2" d="M223.23,54.21a10.16,10.16,0,0,0-7.65,3.15,11.35,11.35,0,0,0-3,8.22,11.67,11.67,0,0,0,3,8.37,10.06,10.06,0,0,0,7.65,3.2,9.9,9.9,0,0,0,7.52-3.25,11.65,11.65,0,0,0,3.05-8.29,11.51,11.51,0,0,0-3-8.2,9.94,9.94,0,0,0-7.57-3.2m-10.26-8V50.5a18.34,18.34,0,0,1,5.72-4,16.48,16.48,0,0,1,6.57-1.32A17,17,0,0,1,238.2,51q5.33,5.76,5.32,14.76A20.34,20.34,0,0,1,238,80.24a17.33,17.33,0,0,1-13,5.85,16.11,16.11,0,0,1-6.25-1.2A19.17,19.17,0,0,1,213,81V99.31h-9.68V46.21Z" transform="translate(-37 -30.2)"/><path class="cls-2" d="M249.31,46.21h8.36v4.9a10.44,10.44,0,0,1,3.61-4.4,8.72,8.72,0,0,1,4.93-1.5,9.1,9.1,0,0,1,4,1l-3,8.4a6.57,6.57,0,0,0-2.82-.86q-2.25,0-3.81,2.79T259,67.47l0,1.89V85.09h-9.68Z" transform="translate(-37 -30.2)"/><polygon class="cls-2" points="286.03 1.68 295.78 1.68 295.78 16.01 301.57 16.01 301.57 24.41 295.78 24.41 295.78 54.88 286.03 54.88 286.03 24.41 281.02 24.41 281.02 16.01 286.03 16.01 286.03 1.68"/><path class="cls-2" d="M373,60.79a9.85,9.85,0,0,0-3.81-5.29,11.06,11.06,0,0,0-6.61-2,11.71,11.71,0,0,0-7.16,2.29,12.71,12.71,0,0,0-3.58,5Zm9.75,7.68H351.39A10.47,10.47,0,0,0,355,75.06a11.34,11.34,0,0,0,7.52,2.45,13,13,0,0,0,9.4-3.82l8.22,3.86A19.5,19.5,0,0,1,372.8,84a23.09,23.09,0,0,1-10.18,2.09q-9.15,0-14.91-5.77A19.67,19.67,0,0,1,342,65.86a20.25,20.25,0,0,1,5.74-14.77,19.24,19.24,0,0,1,14.38-5.88q9.18,0,14.93,5.88t5.76,15.52Z" transform="translate(-37 -30.2)"/><path class="cls-2" d="M428.68,54.07l-8.12,4.47a12,12,0,0,0-9.77-4.26,12.2,12.2,0,0,0-8.85,3.27,11.14,11.14,0,0,0-3.38,8.37A10.74,10.74,0,0,0,401.82,74a11.77,11.77,0,0,0,8.55,3.14q6.54,0,10.19-4.46L428.25,78Q422,86.1,410.6,86.09q-10.25,0-16.06-6.08a20.21,20.21,0,0,1,4.9-32.09,23.48,23.48,0,0,1,11.3-2.71,22.88,22.88,0,0,1,10.4,2.31,19.7,19.7,0,0,1,7.54,6.55" transform="translate(-37 -30.2)"/><polygon class="cls-2" points="401.65 1.68 411.41 1.68 411.41 16.01 417.2 16.01 417.2 24.41 411.41 24.41 411.41 54.88 401.65 54.88 401.65 24.41 396.65 24.41 396.65 16.01 401.65 16.01 401.65 1.68"/><path class="cls-2" d="M458.34,46.21h9.75V85.09h-9.75Zm4.88-16a6,6,0,0,1,4.4,1.86,6.18,6.18,0,0,1,1.83,4.5A6.07,6.07,0,0,1,467.63,41a5.88,5.88,0,0,1-4.34,1.84A5.94,5.94,0,0,1,458.85,41,6.26,6.26,0,0,1,457,36.42a6.2,6.2,0,0,1,6.2-6.22" transform="translate(-37 -30.2)"/><path class="cls-2" d="M495.37,54.39a10,10,0,0,0-7.56,3.17,11.19,11.19,0,0,0-3,8.09,11.46,11.46,0,0,0,3,8.22A10,10,0,0,0,495.34,77,10.11,10.11,0,0,0,503,73.83,11.35,11.35,0,0,0,506,65.65a11.28,11.28,0,0,0-3-8.13,10.11,10.11,0,0,0-7.65-3.13m-.16-9.18A20.67,20.67,0,0,1,505.56,48a19.7,19.7,0,0,1,7.55,7.47,20.06,20.06,0,0,1,2.72,10.18A20.42,20.42,0,0,1,513.1,75.9a19.77,19.77,0,0,1-7.45,7.49,20.58,20.58,0,0,1-10.4,2.7,19.45,19.45,0,0,1-14.28-6,19.76,19.76,0,0,1-5.91-14.46,20.38,20.38,0,0,1,20.15-20.47" transform="translate(-37 -30.2)"/><path class="cls-2" d="M523.8,46.21h9.75v4a23.47,23.47,0,0,1,6-3.89,14.66,14.66,0,0,1,5.51-1.09,13.32,13.32,0,0,1,9.81,4q3.39,3.42,3.39,10.15V85.09h-9.65v-17c0-4.64-.2-7.72-.62-9.24a6.35,6.35,0,0,0-2.18-3.48,6.06,6.06,0,0,0-3.83-1.2,7.18,7.18,0,0,0-5.08,2A10.63,10.63,0,0,0,534,61.6a44.76,44.76,0,0,0-.43,7.89v15.6H523.8Z" transform="translate(-37 -30.2)"/></svg>